<svg xmlns="http://www.w3.org/2000/svg" width="32" height="32" id="bug">
  <path d="M10.125 1a.544.544 0 0 0-.344.656.544.544 0 0 0 .656.344c1.299 0 2.438.679 3.094 1.688a5.339 5.339 0 0 0-2.906 4.75c.001.401.065.798.156 1.187.067.284.42.461.688.344A10.56 10.56 0 0 1 16 8.938c1.615 0 3.154.377 4.531 1.03.268.118.621-.059.688-.343.091-.39.154-.787.156-1.188a5.339 5.339 0 0 0-2.906-4.75A3.692 3.692 0 0 1 21.562 2a.52.52 0 0 0 .508-.5.52.52 0 0 0-.508-.5 4.684 4.684 0 0 0-4.03 2.313A5.408 5.408 0 0 0 16 3.092c-.53 0-1.047.076-1.531.22A4.684 4.684 0 0 0 10.344 1a.503.503 0 0 0-.094 0 .509.509 0 0 0-.063 0 .516.516 0 0 0-.062 0zm16.969 8.406a.5.5 0 0 0-.063.031.508.508 0 0 0-.343.282 11.89 11.89 0 0 1-3.22 3.937c-1.746-2.2-4.44-3.625-7.468-3.625-3.029 0-5.722 1.425-7.469 3.625a11.943 11.943 0 0 1-3.187-3.875.523.523 0 0 0-.5-.281c-.336.028-.566.453-.407.75.855 1.65 2.083 3.054 3.532 4.188A9.405 9.405 0 0 0 6.5 19.03h-3a.506.506 0 0 0-.094 0 .506.506 0 0 0-.094 0 .501.501 0 0 0-.062 0 .536.536 0 0 0-.375.625c.065.262.363.44.625.375h3a9.393 9.393 0 0 0 2.094 5.438 12.964 12.964 0 0 0-4.156 4.718.53.53 0 0 0 .22.685.53.53 0 0 0 .686-.216c.922-1.78 2.285-3.265 3.937-4.375A9.547 9.547 0 0 0 16 29.031a9.55 9.55 0 0 0 6.75-2.781 11.939 11.939 0 0 1 3.938 4.469c.063.14.194.247.343.281.372.092.742-.38.563-.719a12.942 12.942 0 0 0-4.188-4.781 9.414 9.414 0 0 0 2.094-5.469h3a.52.52 0 0 0 .507-.5.52.52 0 0 0-.507-.5h-3a9.405 9.405 0 0 0-1.469-4.593c1.437-1.128 2.681-2.554 3.563-4.282.19-.322-.13-.802-.5-.75z" color="#000" font-family="Sans" font-weight="400" overflow="visible" style="text-indent:0;text-align:start;line-height:normal;text-transform:none;block-progression:tb;marker:none;-inkscape-font-specification:Sans"></path>
</svg>
