<svg xmlns="http://www.w3.org/2000/svg" viewBox="0 0 24 24" id="launchpad">
  <path d="M11.995 17.795a.494.494 0 0 1-.252-.068L7.199 15.08a.5.5 0 0 1-.248-.432V9.352c0-.178.095-.343.249-.433l4.548-2.646a.5.5 0 0 1 .502 0l4.549 2.646c.154.09.249.255.249.433v5.293a.5.5 0 0 1-.248.432l-4.553 2.65a.504.504 0 0 1-.252.068zM7.951 14.36l4.044 2.355 4.053-2.358V9.64l-4.049-2.355-4.048 2.354v4.721zm8.597.285h.01-.01zM12.745 24a.502.502 0 0 1-.5-.5v-4.902a.5.5 0 0 1 .248-.432l4.547-2.649a.498.498 0 0 1 .503-.001l4.215 2.449a.5.5 0 0 1 .001.865l-8.762 5.103a.503.503 0 0 1-.252.067zm.5-5.115v3.745l7.268-4.232-3.221-1.871-4.047 2.358zm9.005-1.286a.494.494 0 0 1-.252-.068l-4.212-2.453a.5.5 0 0 1-.248-.432V9.354a.5.5 0 0 1 .248-.432l4.212-2.455a.501.501 0 0 1 .752.432v10.199a.501.501 0 0 1-.5.501zm-3.712-3.241 3.212 1.87V7.77l-3.212 1.872v4.716zm-1.246-5.803a.503.503 0 0 1-.252-.067L12.491 5.84a.503.503 0 0 1-.248-.433V.5a.501.501 0 0 1 .752-.432l8.766 5.103a.5.5 0 0 1-.001.865l-4.217 2.452a.507.507 0 0 1-.251.067zM13.243 5.12l4.049 2.356 3.223-1.874-7.271-4.233V5.12zM11.254 24a.494.494 0 0 1-.252-.068L2.24 18.829a.5.5 0 0 1 .001-.865l4.212-2.45a.502.502 0 0 1 .503 0l4.55 2.647c.153.09.248.255.248.433V23.5a.501.501 0 0 1-.5.5zm-7.768-5.603 7.268 4.232v-3.748l-4.05-2.356-3.218 1.872zm-1.736-.795a.502.502 0 0 1-.5-.5V6.903a.502.502 0 0 1 .751-.433l4.214 2.451c.154.09.249.255.249.433v5.294a.5.5 0 0 1-.248.432l-4.214 2.453a.496.496 0 0 1-.252.069zm.5-9.83v8.459l3.214-1.87V9.643L2.25 7.772zm4.459.783a.497.497 0 0 1-.251-.067L2.241 6.035a.502.502 0 0 1-.001-.865l8.763-5.1a.501.501 0 0 1 .752.433v4.904a.5.5 0 0 1-.248.432L6.961 8.486a.496.496 0 0 1-.252.069zM3.486 5.603l3.223 1.874 4.046-2.356V1.372L3.486 5.603zm7.769-.196h.01-.01z"></path>
</svg>
