<svg xmlns="http://www.w3.org/2000/svg" width="24" height="24" fill="none" viewBox="0 0 24 24" id="live">
  <path fill="#000" fill-rule="evenodd" d="M12 2.5C6.75329 2.5 2.5 6.75329 2.5 12C2.5 17.2467 6.75329 21.5 12 21.5C17.2467 21.5 21.5 17.2467 21.5 12C21.5 11.0062 21.3476 10.0489 21.0652 9.14982C20.9824 8.88637 21.1289 8.60572 21.3924 8.52298C21.6558 8.44023 21.9365 8.58672 22.0192 8.85018C22.3317 9.84514 22.5 10.9034 22.5 12C22.5 17.799 17.799 22.5 12 22.5C6.20101 22.5 1.5 17.799 1.5 12C1.5 6.20101 6.20101 1.5 12 1.5C15.3968 1.5 18.417 3.11352 20.3354 5.61388C20.5034 5.83296 20.4621 6.14684 20.243 6.31493C20.0239 6.48302 19.7101 6.44169 19.542 6.2226C17.8047 3.95829 15.0727 2.5 12 2.5Z" clip-rule="evenodd"></path>
  <path fill="#000" fill-rule="evenodd" d="M12 10C10.8954 10 10 10.8954 10 12 10 13.1046 10.8954 14 12 14 13.1046 14 14 13.1046 14 12 14 10.8954 13.1046 10 12 10ZM9 12C9 10.3431 10.3431 9 12 9 13.6569 9 15 10.3431 15 12 15 13.6569 13.6569 15 12 15 10.3431 15 9 13.6569 9 12ZM8.12116 7.657C8.3106 7.85793 8.30128 8.17437 8.10036 8.3638 5.96655 10.3756 5.96655 13.6244 8.10036 15.6362 8.30128 15.8256 8.3106 16.1421 8.12116 16.343 7.93173 16.5439 7.61529 16.5532 7.41436 16.3638 4.86188 13.9573 4.86188 10.0427 7.41436 7.6362 7.61529 7.44677 7.93173 7.45608 8.12116 7.657ZM15.8788 7.657C16.0683 7.45608 16.3847 7.44677 16.5856 7.6362 19.1381 10.0427 19.1381 13.9573 16.5856 16.3638 16.3847 16.5532 16.0683 16.5439 15.8788 16.343 15.6894 16.1421 15.6987 15.8256 15.8996 15.6362 18.0335 13.6244 18.0335 10.3756 15.8996 8.3638 15.6987 8.17437 15.6894 7.85793 15.8788 7.657Z" clip-rule="evenodd"></path>
</svg>
