<svg xmlns="http://www.w3.org/2000/svg" viewBox="0 0 16 16" id="scan">
  <path d="M10.5459,7.2271c.2764,0,.5-.2236.5-.5,0-2.3809-1.9375-4.3179-4.3184-4.3179-.2764,0-.5.2236-.5.5s.2236.5.5.5c1.8301,0,3.3184,1.4883,3.3184,3.3179,0,.2764.2236.5.5.5Z"></path>
  <path d="M11.4651,10.7581c.9264-1.0874,1.489-2.4937,1.489-4.0311,0-3.4336-2.793-6.2271-6.2266-6.2271S.5,3.2935.5,6.7271s2.7939,6.2275,6.2275,6.2275c1.5372,0,2.9434-.5627,4.0306-1.4894l3.8883,3.8883c.0977.0977.2256.1465.3535.1465s.2559-.0488.3535-.1465c.1953-.1953.1953-.5117,0-.707l-3.8884-3.8884ZM1.5,6.7271C1.5,3.8447,3.8447,1.5,6.7275,1.5s5.2266,2.3447,5.2266,5.2271c0,1.4399-.5854,2.7456-1.5304,3.692-.0009.0008-.002.001-.0028.0018s-.001.002-.0019.0029c-.9462.9453-2.2517,1.5308-3.6915,1.5308-2.8828,0-5.2275-2.3452-5.2275-5.2275Z"></path>
</svg>
